<svg 
  class="css-ze2te4 css-qd6ojx" 
  viewBox="0 0 140 190.39011994192947"
  width="100%" 
  height="100%" 
  version="1.1" 
  xmlns="http://www.w3.org/2000/svg"
>
  <g transform="translate(-35.77292458014676, -10.577658828437768) scale(2.115458330206273)" class="css-1mun45u" fill="#111111">
    <g xmlns="http://www.w3.org/2000/svg">
      <path fill="none" d="M57.892,13.26C55.804,11.029,52.91,9.478,50,9.335c-2.91,0.143-5.804,1.693-7.892,3.925   c-3.851,4.115-6.02,10.156-8.523,15.12c-5.582,11.072-13.076,22.517-13.02,35.323c0.051,11.548,7.109,22.532,18.388,25.874   c1.807,0.535,3.633,0.848,5.464,0.972c0.134,0.022,0.262,0.045,0.376,0.07c0.051,0.011,0.103,0.017,0.155,0.028   c1.049,0.085,2.095,0.149,3.134,0.191c0.297-0.005,0.594-0.008,0.891-0.015c1.592-0.039,3.271-0.075,4.925-0.217   c0.805-0.005,1.609-0.047,2.412-0.122c0.011-0.002,0.023-0.004,0.034-0.006c-0.005,0.002-0.01,0.003-0.015,0.005   c1.581-0.15,3.157-0.441,4.718-0.904c11.279-3.342,18.337-14.326,18.388-25.874c0.057-12.805-7.437-24.25-13.02-35.323   C63.913,23.416,61.743,17.375,57.892,13.26z M38.753,85.721c-3.44-1.05-6.45-2.492-9.043-5.078   c-2.591-2.584-4.656-5.692-5.845-9.169c-2.68-7.835-1.386-16.012,2.446-23.258c0.024-0.045,0.088-0.013,0.078,0.033   c-0.87,4.033-2.474,7.934-2.82,12.076c-0.305,3.65,0.054,7.415,1.427,10.837c2.5,6.231,7.757,11.503,13.867,14.297   C39.013,85.527,38.906,85.768,38.753,85.721z M65.611,76.106c-1.389,1.923-3.164,3.532-5.163,4.791   c-2.912,2.318-6.668,3.328-10.512,3.2c-3.8,0.102-7.503-0.911-10.383-3.204c-1.998-1.26-3.774-2.865-5.163-4.787   c-4.168-5.769-4.397-12.648-0.956-18.8c2.248-4.019,5.68-8.125,9.553-11.419c1.974-1.958,4.378-3.61,6.402-5.306   c0.289-0.242,0.622-0.24,0.911,0c0.902,0.749,1.796,1.508,2.674,2.283c5.469,3.529,10.585,9.068,13.592,14.442   C70.008,63.458,69.779,70.336,65.611,76.106z M72.852,45.656c-3.164-4.608-5.66-9.741-8.25-14.685   c-2.573-4.91-5.092-9.851-7.561-14.814c-0.018-0.036,0.029-0.062,0.053-0.031c3.491,4.617,6.093,9.884,8.804,14.974   c2.514,4.722,5.209,9.479,7.15,14.473C73.094,45.693,72.916,45.75,72.852,45.656z">
      </path>
      <path fill="none" d="M50,42.246c-7.995,7.617-20.947,17.38-15.5,29.818c2.613,5.967,9.128,9.531,15.553,9.82   c6.39-0.323,12.848-3.886,15.447-9.82C70.947,59.626,57.995,49.863,50,42.246z"></path>
      <path fill="none" d="M58.493,10.465C56.246,8.064,53.131,6.395,50,6.242c-3.131,0.153-6.246,1.822-8.493,4.223   c-4.144,4.428-6.478,10.928-9.172,16.27c-6.007,11.915-14.071,24.23-14.01,38.01c0.055,12.426,7.65,24.246,19.787,27.842   c1.944,0.576,3.909,0.913,5.88,1.046c0.144,0.024,0.282,0.049,0.405,0.076c0.055,0.012,0.111,0.018,0.166,0.03   c1.128,0.091,2.254,0.16,3.373,0.206c0.32-0.005,0.639-0.009,0.959-0.016c1.714-0.042,3.52-0.08,5.299-0.234   c0.866-0.005,1.731-0.05,2.595-0.132c0.012-0.003,0.024-0.004,0.036-0.007c-0.005,0.002-0.011,0.003-0.016,0.005   c1.701-0.162,3.397-0.475,5.077-0.973c12.137-3.596,19.732-15.416,19.787-27.842c0.061-13.779-8.003-26.095-14.01-38.01   C64.971,21.393,62.636,14.893,58.493,10.465z M80.193,65.66c-1.107,10.897-7.9,21.588-18.996,24.474   c-1.825,0.475-3.629,0.752-5.41,0.866c-2.423,0.345-4.957,0.302-7.241,0.178c-0.583-0.031-1.158-0.076-1.729-0.131   c-2.62,0.069-5.294-0.206-8.014-0.913C27.707,87.248,20.914,76.556,19.807,65.66c-1.377-13.554,6.849-26.011,12.689-37.583   c2.752-5.453,5.114-11.722,9.556-16.065c2.123-2.076,5.05-3.345,7.949-3.278c2.899-0.068,5.825,1.202,7.949,3.278   c4.442,4.343,6.804,10.612,9.556,16.065C73.344,39.649,81.57,52.106,80.193,65.66z"></path>
      <path d="M69.087,26.094c-3.001-5.946-5.577-12.782-10.42-17.517C56.352,6.313,53.161,4.929,50,5.003   c-3.161-0.074-6.352,1.311-8.667,3.574c-4.843,4.735-7.42,11.572-10.42,17.517c-6.368,12.618-15.338,26.202-13.836,40.981   c1.207,11.882,8.614,23.54,20.714,26.687c2.966,0.771,5.882,1.071,8.738,0.996c0.622,0.06,1.25,0.109,1.885,0.143   c2.49,0.135,5.254,0.182,7.895-0.195c1.942-0.124,3.91-0.427,5.9-0.944c12.1-3.147,19.507-14.805,20.714-26.687   C84.425,52.296,75.455,38.713,69.087,26.094z M61.888,92.587c-1.68,0.498-3.376,0.811-5.077,0.973   c0.005-0.002,0.011-0.003,0.016-0.005c-0.012,0.003-0.024,0.004-0.036,0.007c-0.864,0.081-1.729,0.127-2.595,0.132   c-1.779,0.154-3.586,0.192-5.299,0.234c-0.32,0.008-0.64,0.011-0.959,0.016c-1.119-0.046-2.244-0.114-3.373-0.206   c-0.055-0.011-0.111-0.018-0.166-0.03c-0.123-0.027-0.261-0.052-0.405-0.076c-1.971-0.133-3.935-0.47-5.88-1.046   C25.975,88.991,18.38,77.171,18.326,64.745c-0.061-13.779,8.003-26.095,14.01-38.01c2.693-5.342,5.028-11.842,9.172-16.27   c2.247-2.401,5.362-4.07,8.493-4.223c3.131,0.153,6.246,1.822,8.493,4.223c4.144,4.428,6.478,10.928,9.172,16.27   c6.007,11.915,14.071,24.23,14.01,38.01C81.619,77.171,74.025,88.991,61.888,92.587z">
      </path>
      <path d="M57.949,12.012C55.825,9.936,52.899,8.666,50,8.734c-2.899-0.068-5.825,1.202-7.949,3.278   c-4.442,4.343-6.804,10.612-9.556,16.065C26.656,39.649,18.43,52.106,19.807,65.66c1.107,10.897,7.9,21.588,18.996,24.474   c2.72,0.707,5.394,0.982,8.014,0.913c0.571,0.055,1.146,0.1,1.729,0.131c2.283,0.123,4.818,0.167,7.241-0.178   c1.781-0.114,3.585-0.391,5.41-0.866c11.096-2.886,17.889-13.577,18.996-24.474c1.377-13.554-6.849-26.011-12.689-37.583   C64.753,22.624,62.39,16.354,57.949,12.012z M61.047,89.576c-1.561,0.463-3.137,0.754-4.718,0.904   c0.005-0.002,0.01-0.003,0.015-0.005c-0.011,0.002-0.023,0.004-0.034,0.006c-0.803,0.076-1.607,0.118-2.412,0.122   c-1.654,0.143-3.332,0.178-4.925,0.217c-0.297,0.007-0.594,0.011-0.891,0.015c-1.04-0.043-2.086-0.106-3.134-0.191   c-0.051-0.011-0.103-0.016-0.155-0.028c-0.114-0.025-0.243-0.048-0.376-0.07c-1.831-0.124-3.657-0.436-5.464-0.972   C27.674,86.234,20.616,75.25,20.565,63.703c-0.057-12.805,7.438-24.25,13.02-35.323c2.503-4.964,4.673-11.005,8.523-15.12   C44.196,11.029,47.09,9.478,50,9.335c2.91,0.143,5.804,1.693,7.892,3.925c3.851,4.115,6.02,10.156,8.523,15.12   c5.582,11.072,13.076,22.517,13.02,35.323C79.384,75.25,72.326,86.234,61.047,89.576z">
      </path>
      <path d="M52.975,42.863c-0.878-0.775-1.772-1.534-2.674-2.283c-0.289-0.24-0.623-0.242-0.911,0   c-2.024,1.696-4.429,3.348-6.402,5.306c-3.873,3.294-7.304,7.4-9.553,11.419c-3.442,6.153-3.213,13.031,0.956,18.8   c1.389,1.922,3.166,3.527,5.163,4.787c2.88,2.293,6.583,3.306,10.383,3.204c3.844,0.129,7.6-0.881,10.512-3.2   c1.998-1.26,3.773-2.869,5.163-4.791c4.168-5.769,4.397-12.648,0.956-18.8C63.56,51.931,58.444,46.392,52.975,42.863z M65.5,72.064   c-2.599,5.934-9.056,9.496-15.447,9.82c-6.425-0.289-12.94-3.853-15.553-9.82C29.053,59.626,42.005,49.863,50,42.246   C57.995,49.863,70.947,59.626,65.5,72.064z">
      </path>
      <path d="M24.997,71.162c-1.373-3.422-1.732-7.188-1.427-10.837c0.346-4.142,1.951-8.043,2.82-12.076   c0.01-0.046-0.055-0.078-0.078-0.033c-3.832,7.246-5.126,15.423-2.446,23.258c1.189,3.477,3.254,6.585,5.845,9.169   c2.593,2.586,5.603,4.028,9.043,5.078c0.153,0.047,0.26-0.194,0.111-0.262C32.753,82.665,27.497,77.393,24.997,71.162z">
      </path>
      <path d="M57.094,16.126c-0.023-0.031-0.071-0.005-0.053,0.031c2.468,4.963,4.988,9.903,7.561,14.814   c2.59,4.944,5.086,10.077,8.25,14.685c0.064,0.094,0.242,0.037,0.195-0.082c-1.941-4.994-4.636-9.751-7.15-14.473   C63.187,26.01,60.584,20.743,57.094,16.126z">
      </path>
    </g>
  </g>
</svg>
